# xmcd CD database file
#
# Track frame offsets:
#	150
#	15516
#	28458
#	40779
#	55073
#	70222
#	83940
#	102863
#	123236
#	137265
#	154983
#	169520
#	181131
#	191310
#	207411
#	225840
#	236391
#	254383
#	276196
#
# Disc length: 3939 seconds
#
# Revision: 0
# Processed by: cddbd v1.5.2PL0 Copyright (c) Steve Scherf et al.
# Submitted via: CDex 1.70beta2
#
DISCID=f10f6113
DTITLE=Danny Sanderson and Friends - Black And White
DYEAR=2004
DGENRE=Blues
TTITLE0=6345789 
TTITLE1=Signed Sealed Delivered 
TTITLE2=The Way You Do The Things You Do
TTITLE3=Rescue Me
TTITLE4=Think
TTITLE5=Baby It's You
TTITLE6=Devil With A Blue Dress
TTITLE7=Sooth Me
TTITLE8=Time Is On My Side
TTITLE9=Natural Woman
TTITLE10=Certain Girl
TTITLE11=He's A Rebel
TTITLE12=Drive My Car
TTITLE13=Crossroads
TTITLE14=Who Do You Love
TTITLE15=Since I Fell For You
TTITLE16=Gimme Some Lovin
TTITLE17=Dancing In The Streets
TTITLE18=Hey Joe
EXTD=YEAR: 2004
EXTT0=
EXTT1=
EXTT2=
EXTT3=
EXTT4=
EXTT5=
EXTT6=
EXTT7=
EXTT8=
EXTT9=
EXTT10=
EXTT11=
EXTT12=
EXTT13=
EXTT14=
EXTT15=
EXTT16=
EXTT17=
EXTT18=
PLAYORDER=
